# xmcd CD database file
#
# Track frame offsets:
#	150
#	35935
#	66505
#	92065
#	124412
#	143347
#	169825
#	185367
#	197970
#	213092
#	226852
#	239870
#	252377
#	270300
#
# Disc length: 3778 seconds
#
# Revision: 5
# Processed by: cddbd v1.5.2PL0 Copyright (c) Steve Scherf et al.
# Submitted via: CDex 1.72
#
DISCID=d30ec00e
DTITLE=RD (USA-95-Rediscovered Blues-bls) - Rediscovered Blues Disc 1
DYEAR=1995
DGENRE=Blues
TTITLE0=Lightnin' Hopkins, Brownie Mc Ghee, Sonny Terry and Big Joe Williams - Ain't Nothin' Like Whiskey
TTITLE1=Lightnin' Hopkins, Brownie Mc Ghee, Sonny Terry and Big Joe Williams - Penitentiary Blues
TTITLE2=Lightnin' Hopkins, Brownie Mc Ghee, Sonny Terry and Big Joe Williams - If You Steal My Chickens, You Can't Make 'Em Lay
TTITLE3=Lightnin' Hopkins, Brownie Mc Ghee, Sonny Terry and Big Joe Williams - First Meeting
TTITLE4=Lightnin' Hopkins, Brownie Mc Ghee, Sonny Terry and Big Joe Williams - How Long Have It Been Since You Been Home?
TTITLE5=Lightnin' Hopkins, Brownie Mc Ghee, Sonny Terry and Big Joe Williams - Wimmin From Coast To Coast
TTITLE6=Sonny Terry and Brownie McGhee - Key To The Highway
TTITLE7=Sonny Terry and Brownie McGhee - Lose Your Money
TTITLE8=Sonny Terry and Brownie McGhee - Louise
TTITLE9=Sonny Terry and Brownie McGhee - Sportin' Life
TTITLE10=Sonny Terry and Brownie McGhee - New Harmonica Breakdown
TTITLE11=Sonny Terry and Brownie McGhee - Prison Bound
TTITLE12=Sonny Terry and Brownie McGhee - Livin' With The Blues
TTITLE13=Sonny Terry and Brownie McGhee - Blowin' The Blues
EXTD=YEAR: 1995
EXTT0=
EXTT1=
EXTT2=
EXTT3=
EXTT4=
EXTT5=
EXTT6=
EXTT7=
EXTT8=
EXTT9=
EXTT10=
EXTT11=
EXTT12=
EXTT13=
PLAYORDER=
